<?xml version="1.0" encoding="UTF-8" standalone="no"?>
<!DOCTYPE svg PUBLIC "-//W3C//DTD SVG 1.1//EN"
 "http://www.w3.org/Graphics/SVG/1.1/DTD/svg11.dtd">
<!-- Generated by graphviz version 2.43.0 (0)
 -->
<!-- Title: finite_state_machine Pages: 1 -->
<svg width="536pt" height="236pt"
 viewBox="0.00 0.00 536.00 236.00" xmlns="http://www.w3.org/2000/svg" xmlns:xlink="http://www.w3.org/1999/xlink">
<g id="graph0" class="graph" transform="scale(1 1) rotate(0) translate(4 232)">
<title>finite_state_machine</title>
<polygon fill="white" stroke="transparent" points="-4,4 -4,-232 532,-232 532,4 -4,4"/>
<!-- 0 -->
<g id="node1" class="node">
<title>0</title>
<ellipse fill="none" stroke="black" cx="18" cy="-145" rx="18" ry="18"/>
<text text-anchor="middle" x="18" y="-141.3" font-family="Times,serif" font-size="14.00">0</text>
</g>
<!-- 2 -->
<g id="node2" class="node">
<title>2</title>
<ellipse fill="none" stroke="black" cx="124" cy="-145" rx="18" ry="18"/>
<text text-anchor="middle" x="124" y="-141.3" font-family="Times,serif" font-size="14.00">2</text>
</g>
<!-- 0&#45;&gt;2 -->
<g id="edge1" class="edge">
<title>0&#45;&gt;2</title>
<path fill="none" stroke="black" d="M36.17,-145C52.36,-145 76.87,-145 95.73,-145"/>
<polygon fill="black" stroke="black" points="95.8,-148.5 105.8,-145 95.8,-141.5 95.8,-148.5"/>
<text text-anchor="middle" x="71" y="-148.8" font-family="Times,serif" font-size="14.00">(8,8)</text>
</g>
<!-- 3 -->
<g id="node3" class="node">
<title>3</title>
<ellipse fill="none" stroke="black" cx="510" cy="-140" rx="18" ry="18"/>
<text text-anchor="middle" x="510" y="-136.3" font-family="Times,serif" font-size="14.00">3</text>
</g>
<!-- 0&#45;&gt;3 -->
<g id="edge2" class="edge">
<title>0&#45;&gt;3</title>
<path fill="none" stroke="black" d="M30.2,-158.76C47.74,-178.63 83.74,-213 123,-213 123,-213 123,-213 379,-213 422.72,-213 465.34,-181.22 489.28,-159.6"/>
<polygon fill="black" stroke="black" points="491.73,-162.1 496.66,-152.72 486.96,-156.98 491.73,-162.1"/>
<text text-anchor="middle" x="256" y="-216.8" font-family="Times,serif" font-size="14.00">(10,10)</text>
</g>
<!-- 1 -->
<g id="node4" class="node">
<title>1</title>
<ellipse fill="none" stroke="black" cx="378" cy="-70" rx="18" ry="18"/>
<text text-anchor="middle" x="378" y="-66.3" font-family="Times,serif" font-size="14.00">1</text>
</g>
<!-- 0&#45;&gt;1 -->
<g id="edge3" class="edge">
<title>0&#45;&gt;1</title>
<path fill="none" stroke="black" d="M34.37,-137.34C68.5,-120.81 153.65,-82.22 230,-69 252.77,-65.06 258.89,-68.88 282,-69 304.86,-69.12 330.8,-69.4 349.8,-69.64"/>
<polygon fill="black" stroke="black" points="349.79,-73.14 359.84,-69.77 349.88,-66.14 349.79,-73.14"/>
<text text-anchor="middle" x="186" y="-89.8" font-family="Times,serif" font-size="14.00">(7,7)</text>
</g>
<!-- 4 -->
<g id="node5" class="node">
<title>4</title>
<ellipse fill="none" stroke="black" cx="256" cy="-96" rx="18" ry="18"/>
<text text-anchor="middle" x="256" y="-92.3" font-family="Times,serif" font-size="14.00">4</text>
</g>
<!-- 2&#45;&gt;4 -->
<g id="edge4" class="edge">
<title>2&#45;&gt;4</title>
<path fill="none" stroke="black" d="M141.2,-138.89C163.31,-130.56 203.18,-115.53 229.37,-105.66"/>
<polygon fill="black" stroke="black" points="230.88,-108.83 239,-102.03 228.41,-102.28 230.88,-108.83"/>
<text text-anchor="middle" x="186" y="-133.8" font-family="Times,serif" font-size="14.00">(10,12)</text>
</g>
<!-- 3&#45;&gt;2 -->
<g id="edge6" class="edge">
<title>3&#45;&gt;2</title>
<path fill="none" stroke="black" d="M491.94,-142.28C486.24,-142.95 479.86,-143.61 474,-144 357.79,-151.73 328.46,-147.89 212,-149 188.89,-149.22 183.07,-150.31 160,-149 157.44,-148.85 154.77,-148.65 152.11,-148.41"/>
<polygon fill="black" stroke="black" points="152.37,-144.91 142.06,-147.34 151.63,-151.88 152.37,-144.91"/>
<text text-anchor="middle" x="317" y="-152.8" font-family="Times,serif" font-size="14.00">(2,2)</text>
</g>
<!-- 3&#45;&gt;1 -->
<g id="edge7" class="edge">
<title>3&#45;&gt;1</title>
<path fill="none" stroke="black" d="M496.38,-128.04C490,-122.41 481.94,-115.86 474,-111 470.79,-109.04 431.14,-92.1 404.09,-80.62"/>
<polygon fill="black" stroke="black" points="405.36,-77.36 394.79,-76.67 402.63,-83.8 405.36,-77.36"/>
<text text-anchor="middle" x="448" y="-114.8" font-family="Times,serif" font-size="14.00">(3,4)</text>
</g>
<!-- 3&#45;&gt;4 -->
<g id="edge5" class="edge">
<title>3&#45;&gt;4</title>
<path fill="none" stroke="black" d="M492.16,-137.44C456.58,-131.98 371.19,-118.57 300,-105 294.7,-103.99 289.05,-102.85 283.65,-101.73"/>
<polygon fill="black" stroke="black" points="284.22,-98.28 273.72,-99.64 282.78,-105.13 284.22,-98.28"/>
<text text-anchor="middle" x="378" y="-125.8" font-family="Times,serif" font-size="14.00">(5,5)</text>
</g>
<!-- 1&#45;&gt;3 -->
<g id="edge11" class="edge">
<title>1&#45;&gt;3</title>
<path fill="none" stroke="black" d="M395.53,-65.1C415.68,-60.15 450.01,-55.17 474,-70 489.08,-79.32 497.87,-97.31 502.88,-112.72"/>
<polygon fill="black" stroke="black" points="499.52,-113.71 505.65,-122.36 506.25,-111.78 499.52,-113.71"/>
<text text-anchor="middle" x="448" y="-73.8" font-family="Times,serif" font-size="14.00">(0,11)</text>
</g>
<!-- 5 -->
<g id="node6" class="node">
<title>5</title>
<ellipse fill="none" stroke="black" cx="510" cy="-18" rx="18" ry="18"/>
<text text-anchor="middle" x="510" y="-14.3" font-family="Times,serif" font-size="14.00">5</text>
</g>
<!-- 1&#45;&gt;5 -->
<g id="edge10" class="edge">
<title>1&#45;&gt;5</title>
<path fill="none" stroke="black" d="M391.03,-57.46C399.09,-49.8 410.32,-40.47 422,-35 440.81,-26.19 463.97,-21.94 481.67,-19.9"/>
<polygon fill="black" stroke="black" points="482.28,-23.35 491.89,-18.89 481.6,-16.39 482.28,-23.35"/>
<text text-anchor="middle" x="448" y="-38.8" font-family="Times,serif" font-size="14.00">(11,22)</text>
</g>
<!-- 4&#45;&gt;1 -->
<g id="edge8" class="edge">
<title>4&#45;&gt;1</title>
<path fill="none" stroke="black" d="M273.69,-92.38C293.46,-88.1 326.66,-80.91 350.08,-75.83"/>
<polygon fill="black" stroke="black" points="351.04,-79.21 360.07,-73.67 349.55,-72.37 351.04,-79.21"/>
<text text-anchor="middle" x="317" y="-89.8" font-family="Times,serif" font-size="14.00">(1,1)</text>
</g>
<!-- 4&#45;&gt;5 -->
<g id="edge9" class="edge">
<title>4&#45;&gt;5</title>
<path fill="none" stroke="black" d="M269.65,-83.92C286.82,-68.29 319.15,-41.45 352,-28 394.69,-10.52 449.39,-11.75 481.67,-14.62"/>
<polygon fill="black" stroke="black" points="481.41,-18.11 491.71,-15.62 482.11,-11.14 481.41,-18.11"/>
<text text-anchor="middle" x="378" y="-31.8" font-family="Times,serif" font-size="14.00">(14,14)</text>
</g>
</g>
</svg>
