<?xml version="1.0" encoding="UTF-8" standalone="no"?>
<!DOCTYPE svg PUBLIC "-//W3C//DTD SVG 1.1//EN"
 "http://www.w3.org/Graphics/SVG/1.1/DTD/svg11.dtd">
<!-- Generated by graphviz version 2.43.0 (0)
 -->
<!-- Title: finite_state_machine Pages: 1 -->
<svg width="433pt" height="358pt"
 viewBox="0.00 0.00 433.00 358.00" xmlns="http://www.w3.org/2000/svg" xmlns:xlink="http://www.w3.org/1999/xlink">
<g id="graph0" class="graph" transform="scale(1 1) rotate(0) translate(4 354)">
<title>finite_state_machine</title>
<polygon fill="white" stroke="transparent" points="-4,4 -4,-354 429,-354 429,4 -4,4"/>
<!-- 3 -->
<g id="node1" class="node">
<title>3</title>
<ellipse fill="none" stroke="black" cx="113" cy="-178" rx="18" ry="18"/>
<text text-anchor="middle" x="113" y="-174.3" font-family="Times,serif" font-size="14.00">3</text>
</g>
<!-- 2 -->
<g id="node2" class="node">
<title>2</title>
<ellipse fill="none" stroke="black" cx="208" cy="-249" rx="18" ry="18"/>
<text text-anchor="middle" x="208" y="-245.3" font-family="Times,serif" font-size="14.00">2</text>
</g>
<!-- 3&#45;&gt;2 -->
<g id="edge1" class="edge">
<title>3&#45;&gt;2</title>
<path fill="none" stroke="black" d="M122.17,-194.02C128.29,-204.64 137.57,-218.19 149,-227 158.24,-234.12 170.06,-239.16 180.6,-242.6"/>
<polygon fill="black" stroke="black" points="179.62,-245.96 190.2,-245.42 181.6,-239.24 179.62,-245.96"/>
<text text-anchor="middle" x="160.5" y="-242.8" font-family="Times,serif" font-size="14.00">0.</text>
</g>
<!-- 1 -->
<g id="node3" class="node">
<title>1</title>
<ellipse fill="none" stroke="black" cx="312" cy="-159" rx="18" ry="18"/>
<text text-anchor="middle" x="312" y="-155.3" font-family="Times,serif" font-size="14.00">1</text>
</g>
<!-- 3&#45;&gt;1 -->
<g id="edge2" class="edge">
<title>3&#45;&gt;1</title>
<path fill="none" stroke="black" d="M131.14,-176.35C165.42,-173.04 242.7,-165.59 283.91,-161.61"/>
<polygon fill="black" stroke="black" points="284.42,-165.08 294.04,-160.64 283.75,-158.11 284.42,-165.08"/>
<text text-anchor="middle" x="208" y="-173.8" font-family="Times,serif" font-size="14.00">0.</text>
</g>
<!-- 0 -->
<g id="node4" class="node">
<title>0</title>
<ellipse fill="none" stroke="black" cx="407" cy="-197" rx="18" ry="18"/>
<text text-anchor="middle" x="407" y="-193.3" font-family="Times,serif" font-size="14.00">0</text>
</g>
<!-- 3&#45;&gt;0 -->
<g id="edge3" class="edge">
<title>3&#45;&gt;0</title>
<path fill="none" stroke="black" d="M125.86,-165.23C132.18,-159.15 140.41,-152.29 149,-148 200.19,-122.44 218.85,-124.36 276,-127 319.1,-128.99 336.79,-120.7 371,-147 379.82,-153.78 387.29,-163.41 393.04,-172.41"/>
<polygon fill="black" stroke="black" points="390.07,-174.27 398.2,-181.07 396.09,-170.69 390.07,-174.27"/>
<text text-anchor="middle" x="260" y="-130.8" font-family="Times,serif" font-size="14.00">7.5</text>
</g>
<!-- 2&#45;&gt;3 -->
<g id="edge10" class="edge">
<title>2&#45;&gt;3</title>
<path fill="none" stroke="black" d="M196.84,-234.48C190.41,-226.02 181.53,-215.56 172,-208 162.14,-200.18 149.93,-193.5 139.25,-188.44"/>
<polygon fill="black" stroke="black" points="140.55,-185.19 129.99,-184.27 137.67,-191.57 140.55,-185.19"/>
<text text-anchor="middle" x="160.5" y="-211.8" font-family="Times,serif" font-size="14.00">0.</text>
</g>
<!-- 2&#45;&gt;1 -->
<g id="edge11" class="edge">
<title>2&#45;&gt;1</title>
<path fill="none" stroke="black" d="M213.94,-231.84C219.12,-216.74 228.67,-195.17 244,-182 255.26,-172.32 270.8,-166.66 284.08,-163.37"/>
<polygon fill="black" stroke="black" points="285.08,-166.74 294.12,-161.22 283.61,-159.89 285.08,-166.74"/>
<text text-anchor="middle" x="260" y="-185.8" font-family="Times,serif" font-size="14.00">0.</text>
</g>
<!-- 2&#45;&gt;0 -->
<g id="edge12" class="edge">
<title>2&#45;&gt;0</title>
<path fill="none" stroke="black" d="M218.12,-264.13C224.41,-273.5 233.51,-285.19 244,-293 275.48,-316.42 295.48,-331.65 330,-313 364.9,-294.14 386.36,-251.51 397.22,-223.51"/>
<polygon fill="black" stroke="black" points="400.58,-224.53 400.75,-213.93 394.01,-222.11 400.58,-224.53"/>
<text text-anchor="middle" x="312" y="-324.8" font-family="Times,serif" font-size="14.00">0.</text>
</g>
<!-- 5 -->
<g id="node5" class="node">
<title>5</title>
<ellipse fill="none" stroke="black" cx="312" cy="-286" rx="18" ry="18"/>
<text text-anchor="middle" x="312" y="-282.3" font-family="Times,serif" font-size="14.00">5</text>
</g>
<!-- 2&#45;&gt;5 -->
<g id="edge13" class="edge">
<title>2&#45;&gt;5</title>
<path fill="none" stroke="black" d="M224.91,-256.17C230.85,-258.75 237.69,-261.62 244,-264 257.33,-269.03 272.39,-274.04 284.85,-278"/>
<polygon fill="black" stroke="black" points="284.03,-281.41 294.61,-281.06 286.12,-274.73 284.03,-281.41"/>
<text text-anchor="middle" x="260" y="-277.8" font-family="Times,serif" font-size="14.00">22.5</text>
</g>
<!-- 1&#45;&gt;3 -->
<g id="edge4" class="edge">
<title>1&#45;&gt;3</title>
<path fill="none" stroke="black" d="M294.42,-154.6C270.98,-149.04 226.89,-140.98 190,-148 172.11,-151.4 153.05,-158.94 138.49,-165.6"/>
<polygon fill="black" stroke="black" points="136.73,-162.56 129.21,-170.02 139.74,-168.89 136.73,-162.56"/>
<text text-anchor="middle" x="208" y="-151.8" font-family="Times,serif" font-size="14.00">0.</text>
</g>
<!-- 1&#45;&gt;2 -->
<g id="edge5" class="edge">
<title>1&#45;&gt;2</title>
<path fill="none" stroke="black" d="M300.48,-173.4C293.92,-181.9 285.04,-192.6 276,-201 275.49,-201.48 250.69,-219.22 231.41,-232.99"/>
<polygon fill="black" stroke="black" points="229.16,-230.3 223.05,-238.97 233.22,-236 229.16,-230.3"/>
<text text-anchor="middle" x="260" y="-226.8" font-family="Times,serif" font-size="14.00">15.</text>
</g>
<!-- 1&#45;&gt;0 -->
<g id="edge6" class="edge">
<title>1&#45;&gt;0</title>
<path fill="none" stroke="black" d="M328.58,-166.39C334.61,-169.18 341.59,-172.32 348,-175 358.43,-179.36 370.07,-183.84 380.16,-187.62"/>
<polygon fill="black" stroke="black" points="379.04,-190.93 389.64,-191.12 381.47,-184.37 379.04,-190.93"/>
<text text-anchor="middle" x="359.5" y="-186.8" font-family="Times,serif" font-size="14.00">0.</text>
</g>
<!-- 0&#45;&gt;3 -->
<g id="edge7" class="edge">
<title>0&#45;&gt;3</title>
<path fill="none" stroke="black" d="M402.78,-214.7C398.24,-236.36 388.51,-273.53 371,-301 357.48,-322.21 353.35,-330.67 330,-340 315.14,-345.94 309.63,-343.42 294,-340 221.68,-324.16 197.47,-313.97 149,-258 135.77,-242.72 126.83,-221.66 121.29,-204.98"/>
<polygon fill="black" stroke="black" points="124.58,-203.77 118.28,-195.25 117.9,-205.84 124.58,-203.77"/>
<text text-anchor="middle" x="260" y="-338.8" font-family="Times,serif" font-size="14.00">0.</text>
</g>
<!-- 0&#45;&gt;2 -->
<g id="edge8" class="edge">
<title>0&#45;&gt;2</title>
<path fill="none" stroke="black" d="M389.83,-203.18C365.48,-212.26 317.8,-229.2 276,-239 262.98,-242.05 248.31,-244.37 236.02,-246"/>
<polygon fill="black" stroke="black" points="235.43,-242.54 225.94,-247.25 236.3,-249.49 235.43,-242.54"/>
<text text-anchor="middle" x="312" y="-237.8" font-family="Times,serif" font-size="14.00">7.5</text>
</g>
<!-- 0&#45;&gt;1 -->
<g id="edge9" class="edge">
<title>0&#45;&gt;1</title>
<path fill="none" stroke="black" d="M397.49,-181.52C391.44,-172.24 382.39,-161.25 371,-156 361.35,-151.55 349.82,-151.27 339.58,-152.49"/>
<polygon fill="black" stroke="black" points="338.81,-149.07 329.53,-154.18 339.97,-155.97 338.81,-149.07"/>
<text text-anchor="middle" x="359.5" y="-159.8" font-family="Times,serif" font-size="14.00">7.5</text>
</g>
<!-- 4 -->
<g id="node6" class="node">
<title>4</title>
<ellipse fill="none" stroke="black" cx="18" cy="-43" rx="18" ry="18"/>
<text text-anchor="middle" x="18" y="-39.3" font-family="Times,serif" font-size="14.00">4</text>
</g>
<!-- 4&#45;&gt;3 -->
<g id="edge16" class="edge">
<title>4&#45;&gt;3</title>
<path fill="none" stroke="black" d="M28.95,-57.45C45.1,-80.89 77.15,-127.41 96.37,-155.31"/>
<polygon fill="black" stroke="black" points="93.56,-157.41 102.12,-163.66 99.33,-153.44 93.56,-157.41"/>
<text text-anchor="middle" x="65.5" y="-129.8" font-family="Times,serif" font-size="14.00">7.5</text>
</g>
<!-- 4&#45;&gt;1 -->
<g id="edge15" class="edge">
<title>4&#45;&gt;1</title>
<path fill="none" stroke="black" d="M35.9,-45C78.94,-50.73 195.04,-70.18 276,-121 282.68,-125.2 288.91,-131 294.2,-136.81"/>
<polygon fill="black" stroke="black" points="291.66,-139.22 300.79,-144.58 296.99,-134.69 291.66,-139.22"/>
<text text-anchor="middle" x="160.5" y="-77.8" font-family="Times,serif" font-size="14.00">7.5</text>
</g>
<!-- 4&#45;&gt;0 -->
<g id="edge14" class="edge">
<title>4&#45;&gt;0</title>
<path fill="none" stroke="black" d="M32.59,-32.15C49.94,-19.41 81.4,0 112,0 112,0 112,0 313,0 386.75,0 402.11,-114.3 405.24,-168.77"/>
<polygon fill="black" stroke="black" points="401.74,-169 405.71,-178.82 408.74,-168.67 401.74,-169"/>
<text text-anchor="middle" x="208" y="-3.8" font-family="Times,serif" font-size="14.00">7.5</text>
</g>
</g>
</svg>
