<?xml version="1.0" encoding="UTF-8" standalone="no"?>
<!DOCTYPE svg PUBLIC "-//W3C//DTD SVG 1.1//EN"
 "http://www.w3.org/Graphics/SVG/1.1/DTD/svg11.dtd">
<!-- Generated by graphviz version 2.43.0 (0)
 -->
<!-- Title: finite_state_machine Pages: 1 -->
<svg width="538pt" height="155pt"
 viewBox="0.00 0.00 538.00 155.00" xmlns="http://www.w3.org/2000/svg" xmlns:xlink="http://www.w3.org/1999/xlink">
<g id="graph0" class="graph" transform="scale(1 1) rotate(0) translate(4 151)">
<title>finite_state_machine</title>
<polygon fill="white" stroke="transparent" points="-4,4 -4,-151 534,-151 534,4 -4,4"/>
<!-- 4 -->
<g id="node1" class="node">
<title>4</title>
<ellipse fill="none" stroke="black" cx="389" cy="-77" rx="18" ry="18"/>
<text text-anchor="middle" x="389" y="-73.3" font-family="Times,serif" font-size="14.00">4</text>
</g>
<!-- 5 -->
<g id="node2" class="node">
<title>5</title>
<ellipse fill="none" stroke="black" cx="512" cy="-108" rx="18" ry="18"/>
<text text-anchor="middle" x="512" y="-104.3" font-family="Times,serif" font-size="14.00">5</text>
</g>
<!-- 4&#45;&gt;5 -->
<g id="edge1" class="edge">
<title>4&#45;&gt;5</title>
<path fill="none" stroke="black" d="M406.82,-81.31C426.96,-86.47 460.92,-95.17 484.57,-101.23"/>
<polygon fill="black" stroke="black" points="483.76,-104.63 494.32,-103.73 485.5,-97.85 483.76,-104.63"/>
<text text-anchor="middle" x="454.5" y="-101.8" font-family="Times,serif" font-size="14.00">(8,14)</text>
</g>
<!-- 1 -->
<g id="node3" class="node">
<title>1</title>
<ellipse fill="none" stroke="black" cx="266" cy="-129" rx="18" ry="18"/>
<text text-anchor="middle" x="266" y="-125.3" font-family="Times,serif" font-size="14.00">1</text>
</g>
<!-- 1&#45;&gt;4 -->
<g id="edge3" class="edge">
<title>1&#45;&gt;4</title>
<path fill="none" stroke="black" d="M280.81,-118.74C287.06,-114.41 294.68,-109.57 302,-106 321.12,-96.69 343.99,-89.13 361.33,-84.07"/>
<polygon fill="black" stroke="black" points="362.66,-87.33 371.34,-81.25 360.76,-80.59 362.66,-87.33"/>
<text text-anchor="middle" x="323.5" y="-109.8" font-family="Times,serif" font-size="14.00">(0,1)</text>
</g>
<!-- 1&#45;&gt;5 -->
<g id="edge2" class="edge">
<title>1&#45;&gt;5</title>
<path fill="none" stroke="black" d="M284.19,-129.14C320.06,-129.18 405.43,-127.99 476,-117 478.75,-116.57 481.6,-116.02 484.44,-115.4"/>
<polygon fill="black" stroke="black" points="485.52,-118.74 494.4,-112.97 483.86,-111.94 485.52,-118.74"/>
<text text-anchor="middle" x="389" y="-130.8" font-family="Times,serif" font-size="14.00">(17,22)</text>
</g>
<!-- 3 -->
<g id="node4" class="node">
<title>3</title>
<ellipse fill="none" stroke="black" cx="142" cy="-72" rx="18" ry="18"/>
<text text-anchor="middle" x="142" y="-68.3" font-family="Times,serif" font-size="14.00">3</text>
</g>
<!-- 3&#45;&gt;4 -->
<g id="edge6" class="edge">
<title>3&#45;&gt;4</title>
<path fill="none" stroke="black" d="M160.23,-72.35C202.14,-73.21 309.69,-75.4 360.56,-76.44"/>
<polygon fill="black" stroke="black" points="360.72,-79.94 370.79,-76.65 360.86,-72.95 360.72,-79.94"/>
<text text-anchor="middle" x="266" y="-77.8" font-family="Times,serif" font-size="14.00">(0,5)</text>
</g>
<!-- 3&#45;&gt;1 -->
<g id="edge4" class="edge">
<title>3&#45;&gt;1</title>
<path fill="none" stroke="black" d="M159.48,-77.29C177.31,-83.27 206.37,-93.79 230,-106 234.11,-108.12 238.33,-110.61 242.37,-113.15"/>
<polygon fill="black" stroke="black" points="240.49,-116.1 250.77,-118.67 244.33,-110.25 240.49,-116.1"/>
<text text-anchor="middle" x="204" y="-109.8" font-family="Times,serif" font-size="14.00">(10,11)</text>
</g>
<!-- 2 -->
<g id="node5" class="node">
<title>2</title>
<ellipse fill="none" stroke="black" cx="266" cy="-18" rx="18" ry="18"/>
<text text-anchor="middle" x="266" y="-14.3" font-family="Times,serif" font-size="14.00">2</text>
</g>
<!-- 3&#45;&gt;2 -->
<g id="edge5" class="edge">
<title>3&#45;&gt;2</title>
<path fill="none" stroke="black" d="M155.37,-59.59C161.69,-53.85 169.77,-47.35 178,-43 196.96,-32.99 220.43,-26.54 238.21,-22.71"/>
<polygon fill="black" stroke="black" points="239.08,-26.11 248.2,-20.7 237.7,-19.24 239.08,-26.11"/>
<text text-anchor="middle" x="204" y="-46.8" font-family="Times,serif" font-size="14.00">(0,2)</text>
</g>
<!-- 2&#45;&gt;4 -->
<g id="edge7" class="edge">
<title>2&#45;&gt;4</title>
<path fill="none" stroke="black" d="M283.82,-21.54C300.11,-25.39 325.17,-32.43 345,-43 352.8,-47.15 360.59,-52.76 367.36,-58.23"/>
<polygon fill="black" stroke="black" points="365.42,-61.17 375.31,-64.95 369.94,-55.82 365.42,-61.17"/>
<text text-anchor="middle" x="323.5" y="-46.8" font-family="Times,serif" font-size="14.00">(8,12)</text>
</g>
<!-- 0 -->
<g id="node6" class="node">
<title>0</title>
<ellipse fill="none" stroke="black" cx="18" cy="-72" rx="18" ry="18"/>
<text text-anchor="middle" x="18" y="-68.3" font-family="Times,serif" font-size="14.00">0</text>
</g>
<!-- 0&#45;&gt;1 -->
<g id="edge8" class="edge">
<title>0&#45;&gt;1</title>
<path fill="none" stroke="black" d="M33.58,-81.02C39.71,-84.52 47.03,-88.32 54,-91 106.92,-111.36 122.06,-111.71 178,-121 197.76,-124.28 220.29,-126.31 237.47,-127.5"/>
<polygon fill="black" stroke="black" points="237.7,-131.02 247.9,-128.17 238.15,-124.03 237.7,-131.02"/>
<text text-anchor="middle" x="142" y="-120.8" font-family="Times,serif" font-size="14.00">(7,7)</text>
</g>
<!-- 0&#45;&gt;3 -->
<g id="edge9" class="edge">
<title>0&#45;&gt;3</title>
<path fill="none" stroke="black" d="M36.22,-72C56.38,-72 90.04,-72 113.75,-72"/>
<polygon fill="black" stroke="black" points="113.87,-75.5 123.87,-72 113.87,-68.5 113.87,-75.5"/>
<text text-anchor="middle" x="80" y="-75.8" font-family="Times,serif" font-size="14.00">(10,10)</text>
</g>
<!-- 0&#45;&gt;2 -->
<g id="edge10" class="edge">
<title>0&#45;&gt;2</title>
<path fill="none" stroke="black" d="M34.59,-64.32C54.73,-54.73 91.13,-38.56 124,-30 147.42,-23.9 153.9,-25.25 178,-23 197.89,-21.14 220.42,-19.87 237.56,-19.07"/>
<polygon fill="black" stroke="black" points="238.13,-22.55 247.97,-18.62 237.83,-15.56 238.13,-22.55"/>
<text text-anchor="middle" x="142" y="-33.8" font-family="Times,serif" font-size="14.00">(8,8)</text>
</g>
</g>
</svg>
