<?xml version="1.0" encoding="UTF-8" standalone="no"?>
<!DOCTYPE svg PUBLIC "-//W3C//DTD SVG 1.1//EN"
 "http://www.w3.org/Graphics/SVG/1.1/DTD/svg11.dtd">
<!-- Generated by graphviz version 2.43.0 (0)
 -->
<!-- Title: finite_state_machine Pages: 1 -->
<svg width="1080pt" height="356pt"
 viewBox="0.00 0.00 1080.00 356.04" xmlns="http://www.w3.org/2000/svg" xmlns:xlink="http://www.w3.org/1999/xlink">
<g id="graph0" class="graph" transform="scale(1.05 1.05) rotate(0) translate(4 371.49)">
<title>finite_state_machine</title>
<polygon fill="white" stroke="transparent" points="-4,4 -4,-371.49 1135,-371.49 1135,4 -4,4"/>
<!-- 3 -->
<g id="node1" class="node">
<title>3</title>
<ellipse fill="none" stroke="black" cx="109" cy="-197.49" rx="18" ry="18"/>
<text text-anchor="middle" x="109" y="-193.79" font-family="Times,serif" font-size="14.00">3</text>
</g>
<!-- 2 -->
<g id="node2" class="node">
<title>2</title>
<ellipse fill="none" stroke="black" cx="421" cy="-159.49" rx="18" ry="18"/>
<text text-anchor="middle" x="421" y="-155.79" font-family="Times,serif" font-size="14.00">2</text>
</g>
<!-- 3&#45;&gt;2 -->
<g id="edge1" class="edge">
<title>3&#45;&gt;2</title>
<path fill="none" stroke="black" d="M119.42,-182.74C125.59,-174.52 134.45,-165.05 145,-160.49 229.47,-123.94 342.68,-141.87 393.43,-152.96"/>
<polygon fill="black" stroke="black" points="392.75,-156.39 403.28,-155.2 394.3,-149.57 392.75,-156.39"/>
<text text-anchor="middle" x="231" y="-164.29" font-family="Times,serif" font-size="14.00">4611686018427387903</text>
</g>
<!-- 1 -->
<g id="node3" class="node">
<title>1</title>
<ellipse fill="none" stroke="black" cx="801" cy="-106.49" rx="18" ry="18"/>
<text text-anchor="middle" x="801" y="-102.79" font-family="Times,serif" font-size="14.00">1</text>
</g>
<!-- 3&#45;&gt;1 -->
<g id="edge2" class="edge">
<title>3&#45;&gt;1</title>
<path fill="none" stroke="black" d="M114.73,-180.3C119.73,-165.61 129.13,-145.19 145,-134.49 286.09,-39.33 355.15,-97.95 525,-87.49 601.3,-82.79 620.87,-80.53 697,-87.49 723.21,-89.89 752.72,-95.65 773.41,-100.2"/>
<polygon fill="black" stroke="black" points="772.83,-103.66 783.36,-102.45 774.38,-96.83 772.83,-103.66"/>
<text text-anchor="middle" x="421" y="-92.29" font-family="Times,serif" font-size="14.00">4611686018427387903</text>
</g>
<!-- 0 -->
<g id="node4" class="node">
<title>0</title>
<ellipse fill="none" stroke="black" cx="1113" cy="-225.49" rx="18" ry="18"/>
<text text-anchor="middle" x="1113" y="-221.79" font-family="Times,serif" font-size="14.00">0</text>
</g>
<!-- 3&#45;&gt;0 -->
<g id="edge3" class="edge">
<title>3&#45;&gt;0</title>
<path fill="none" stroke="black" d="M125.27,-205.46C131.26,-208.2 138.3,-210.96 145,-212.49 392.22,-268.91 461.48,-231.93 715,-237.49 791.43,-239.16 810.56,-237.89 887,-237.49 971.45,-237.05 993.43,-247.64 1077,-235.49 1079.93,-235.06 1082.96,-234.46 1085.96,-233.75"/>
<polygon fill="black" stroke="black" points="1087.07,-237.08 1095.82,-231.09 1085.25,-230.32 1087.07,-237.08"/>
<text text-anchor="middle" x="611" y="-243.29" font-family="Times,serif" font-size="14.00">4611686018427387903</text>
</g>
<!-- 2&#45;&gt;3 -->
<g id="edge11" class="edge">
<title>2&#45;&gt;3</title>
<path fill="none" stroke="black" d="M402.9,-162.4C382.5,-165.82 347.32,-171.53 317,-175.49 252.64,-183.9 176.69,-191.34 137.1,-195.03"/>
<polygon fill="black" stroke="black" points="136.57,-191.56 126.94,-195.97 137.22,-198.53 136.57,-191.56"/>
<text text-anchor="middle" x="231" y="-197.29" font-family="Times,serif" font-size="14.00">4611686018427387903</text>
</g>
<!-- 2&#45;&gt;1 -->
<g id="edge12" class="edge">
<title>2&#45;&gt;1</title>
<path fill="none" stroke="black" d="M435.72,-149.09C454.62,-135.48 490.28,-112.32 525,-103.49 613.59,-80.96 723.48,-93.81 773.26,-101.72"/>
<polygon fill="black" stroke="black" points="772.78,-105.19 783.22,-103.36 773.92,-98.28 772.78,-105.19"/>
<text text-anchor="middle" x="611" y="-107.29" font-family="Times,serif" font-size="14.00">4611686018427387903</text>
</g>
<!-- 2&#45;&gt;0 -->
<g id="edge13" class="edge">
<title>2&#45;&gt;0</title>
<path fill="none" stroke="black" d="M438.66,-163.8C458.94,-168.91 494.27,-177.38 525,-182.49 738.41,-218 1000.32,-224.19 1084.54,-225.26"/>
<polygon fill="black" stroke="black" points="1084.54,-228.76 1094.58,-225.38 1084.62,-221.76 1084.54,-228.76"/>
<text text-anchor="middle" x="801" y="-222.29" font-family="Times,serif" font-size="14.00">4611686018427387903</text>
</g>
<!-- 5 -->
<g id="node5" class="node">
<title>5</title>
<ellipse fill="none" stroke="black" cx="1113" cy="-64.49" rx="18" ry="18"/>
<text text-anchor="middle" x="1113" y="-60.79" font-family="Times,serif" font-size="14.00">5</text>
</g>
<!-- 2&#45;&gt;5 -->
<g id="edge14" class="edge">
<title>2&#45;&gt;5</title>
<path fill="none" stroke="black" d="M437.38,-151.96C455.18,-142.84 484.88,-126.34 507,-107.49 516.36,-99.52 514.15,-92.26 525,-86.49 717.76,16.01 998.6,-37.53 1085.43,-57.82"/>
<polygon fill="black" stroke="black" points="1084.72,-61.25 1095.26,-60.17 1086.35,-54.44 1084.72,-61.25"/>
<text text-anchor="middle" x="801" y="-35.29" font-family="Times,serif" font-size="14.00">2</text>
</g>
<!-- 1&#45;&gt;3 -->
<g id="edge7" class="edge">
<title>1&#45;&gt;3</title>
<path fill="none" stroke="black" d="M784.4,-99.07C705.4,-62.67 345.38,88.73 145,-74.49 117.07,-97.24 110.48,-140.57 109.41,-169.25"/>
<polygon fill="black" stroke="black" points="105.9,-169.39 109.23,-179.45 112.9,-169.51 105.9,-169.39"/>
<text text-anchor="middle" x="421" y="-14.29" font-family="Times,serif" font-size="14.00">4611686018427387903</text>
</g>
<!-- 1&#45;&gt;2 -->
<g id="edge8" class="edge">
<title>1&#45;&gt;2</title>
<path fill="none" stroke="black" d="M782.89,-109.26C762.46,-112.54 727.27,-118.12 697,-122.49 620.67,-133.52 601.43,-135.18 525,-145.49 499.26,-148.96 469.91,-152.95 449.14,-155.78"/>
<polygon fill="black" stroke="black" points="448.56,-152.33 439.13,-157.15 449.51,-159.27 448.56,-152.33"/>
<text text-anchor="middle" x="611" y="-149.29" font-family="Times,serif" font-size="14.00">4611686018427387903</text>
</g>
<!-- 1&#45;&gt;0 -->
<g id="edge9" class="edge">
<title>1&#45;&gt;0</title>
<path fill="none" stroke="black" d="M819.33,-105.92C876.47,-104.18 1056.52,-100 1077,-115.49 1102.03,-134.43 1109.53,-171.37 1111.59,-197.19"/>
<polygon fill="black" stroke="black" points="1108.11,-197.71 1112.17,-207.5 1115.1,-197.31 1108.11,-197.71"/>
<text text-anchor="middle" x="991" y="-119.29" font-family="Times,serif" font-size="14.00">4611686018427387903</text>
</g>
<!-- 1&#45;&gt;5 -->
<g id="edge10" class="edge">
<title>1&#45;&gt;5</title>
<path fill="none" stroke="black" d="M818.61,-101.61C838.83,-95.86 874.12,-86.47 905,-81.49 968.94,-71.17 1045.05,-66.96 1084.79,-65.37"/>
<polygon fill="black" stroke="black" points="1085.13,-68.86 1094.99,-64.99 1084.86,-61.87 1085.13,-68.86"/>
<text text-anchor="middle" x="991" y="-85.29" font-family="Times,serif" font-size="14.00">19</text>
</g>
<!-- 0&#45;&gt;3 -->
<g id="edge4" class="edge">
<title>0&#45;&gt;3</title>
<path fill="none" stroke="black" d="M1099.5,-237.77C1093.28,-243.05 1085.31,-248.66 1077,-251.49 844.78,-330.69 770.35,-259.78 525,-258.49 440.55,-258.05 419.34,-260.7 335,-256.49 250.32,-252.26 220.1,-278.84 145,-239.49 136.9,-235.25 129.94,-228.25 124.41,-221.18"/>
<polygon fill="black" stroke="black" points="127.24,-219.11 118.59,-212.99 121.54,-223.17 127.24,-219.11"/>
<text text-anchor="middle" x="611" y="-274.29" font-family="Times,serif" font-size="14.00">4611686018427387903</text>
</g>
<!-- 0&#45;&gt;2 -->
<g id="edge5" class="edge">
<title>0&#45;&gt;2</title>
<path fill="none" stroke="black" d="M1096.26,-218.18C1090.34,-215.7 1083.47,-213.14 1077,-211.49 994.59,-190.41 971.71,-196.25 887,-188.49 721.13,-173.29 521.22,-163.78 449.37,-160.64"/>
<polygon fill="black" stroke="black" points="449.48,-157.14 439.34,-160.21 449.18,-164.13 449.48,-157.14"/>
<text text-anchor="middle" x="801" y="-192.29" font-family="Times,serif" font-size="14.00">4611686018427387903</text>
</g>
<!-- 0&#45;&gt;1 -->
<g id="edge6" class="edge">
<title>0&#45;&gt;1</title>
<path fill="none" stroke="black" d="M1107.9,-207.93C1103.22,-192.07 1093.93,-169.43 1077,-157.49 1013.97,-113.04 980.6,-149.75 905,-134.49 878.43,-129.13 848.59,-120.75 827.9,-114.55"/>
<polygon fill="black" stroke="black" points="828.84,-111.18 818.25,-111.63 826.8,-117.88 828.84,-111.18"/>
<text text-anchor="middle" x="991" y="-161.29" font-family="Times,serif" font-size="14.00">4611686018427387903</text>
</g>
<!-- 4 -->
<g id="node6" class="node">
<title>4</title>
<ellipse fill="none" stroke="black" cx="18" cy="-282.49" rx="18" ry="18"/>
<text text-anchor="middle" x="18" y="-278.79" font-family="Times,serif" font-size="14.00">4</text>
</g>
<!-- 4&#45;&gt;3 -->
<g id="edge16" class="edge">
<title>4&#45;&gt;3</title>
<path fill="none" stroke="black" d="M31.75,-270.31C46.42,-256.3 70.7,-233.11 87.92,-216.67"/>
<polygon fill="black" stroke="black" points="90.46,-219.08 95.27,-209.65 85.62,-214.02 90.46,-219.08"/>
<text text-anchor="middle" x="63.5" y="-251.29" font-family="Times,serif" font-size="14.00">18</text>
</g>
<!-- 4&#45;&gt;0 -->
<g id="edge15" class="edge">
<title>4&#45;&gt;0</title>
<path fill="none" stroke="black" d="M28.52,-297.33C42.99,-317.88 72.62,-352.49 108,-352.49 108,-352.49 108,-352.49 802,-352.49 928.01,-352.49 975.69,-358.42 1077,-283.49 1087.93,-275.4 1096.13,-262.79 1101.83,-251.39"/>
<polygon fill="black" stroke="black" points="1105.05,-252.77 1106.04,-242.22 1098.69,-249.85 1105.05,-252.77"/>
<text text-anchor="middle" x="421" y="-356.29" font-family="Times,serif" font-size="14.00">1</text>
</g>
</g>
</svg>
