<?xml version="1.0" encoding="UTF-8" standalone="no"?>
<!DOCTYPE svg PUBLIC "-//W3C//DTD SVG 1.1//EN"
 "http://www.w3.org/Graphics/SVG/1.1/DTD/svg11.dtd">
<!-- Generated by graphviz version 2.43.0 (0)
 -->
<!-- Title: finite_state_machine Pages: 1 -->
<svg width="633pt" height="184pt"
 viewBox="0.00 0.00 633.00 184.00" xmlns="http://www.w3.org/2000/svg" xmlns:xlink="http://www.w3.org/1999/xlink">
<g id="graph0" class="graph" transform="scale(1 1) rotate(0) translate(4 180)">
<title>finite_state_machine</title>
<polygon fill="white" stroke="transparent" points="-4,4 -4,-180 629,-180 629,4 -4,4"/>
<!-- 1 -->
<g id="node1" class="node">
<title>1</title>
<ellipse fill="none" stroke="black" cx="127.5" cy="-109" rx="18" ry="18"/>
<text text-anchor="middle" x="127.5" y="-105.3" font-family="Times,serif" font-size="14.00">1</text>
</g>
<!-- 3 -->
<g id="node2" class="node">
<title>3</title>
<ellipse fill="none" stroke="black" cx="246" cy="-61" rx="18" ry="18"/>
<text text-anchor="middle" x="246" y="-57.3" font-family="Times,serif" font-size="14.00">3</text>
</g>
<!-- 1&#45;&gt;3 -->
<g id="edge1" class="edge">
<title>1&#45;&gt;3</title>
<path fill="none" stroke="black" d="M143.06,-99.22C150.09,-94.79 158.77,-89.72 167,-86 183.64,-78.48 203.2,-72.22 218.58,-67.84"/>
<polygon fill="black" stroke="black" points="219.75,-71.15 228.46,-65.12 217.89,-64.4 219.75,-71.15"/>
<text text-anchor="middle" x="188.5" y="-89.8" font-family="Times,serif" font-size="14.00">(0,11)</text>
</g>
<!-- 5 -->
<g id="node3" class="node">
<title>5</title>
<ellipse fill="none" stroke="black" cx="607" cy="-138" rx="18" ry="18"/>
<text text-anchor="middle" x="607" y="-134.3" font-family="Times,serif" font-size="14.00">5</text>
</g>
<!-- 1&#45;&gt;5 -->
<g id="edge2" class="edge">
<title>1&#45;&gt;5</title>
<path fill="none" stroke="black" d="M142.32,-119.77C163.27,-135.01 204.91,-161 245,-161 245,-161 245,-161 484,-161 517.57,-161 555.45,-152.49 579.97,-145.82"/>
<polygon fill="black" stroke="black" points="580.93,-149.18 589.61,-143.1 579.03,-142.45 580.93,-149.18"/>
<text text-anchor="middle" x="355.5" y="-164.8" font-family="Times,serif" font-size="14.00">(8,22)</text>
</g>
<!-- 4 -->
<g id="node4" class="node">
<title>4</title>
<ellipse fill="none" stroke="black" cx="483" cy="-94" rx="18" ry="18"/>
<text text-anchor="middle" x="483" y="-90.3" font-family="Times,serif" font-size="14.00">4</text>
</g>
<!-- 3&#45;&gt;4 -->
<g id="edge6" class="edge">
<title>3&#45;&gt;4</title>
<path fill="none" stroke="black" d="M263.9,-63.37C304.11,-69.02 405.78,-83.3 454.77,-90.18"/>
<polygon fill="black" stroke="black" points="454.55,-93.68 464.94,-91.6 455.52,-86.75 454.55,-93.68"/>
<text text-anchor="middle" x="355.5" y="-82.8" font-family="Times,serif" font-size="14.00">(5,5)</text>
</g>
<!-- 2 -->
<g id="node5" class="node">
<title>2</title>
<ellipse fill="none" stroke="black" cx="355.5" cy="-18" rx="18" ry="18"/>
<text text-anchor="middle" x="355.5" y="-14.3" font-family="Times,serif" font-size="14.00">2</text>
</g>
<!-- 3&#45;&gt;2 -->
<g id="edge5" class="edge">
<title>3&#45;&gt;2</title>
<path fill="none" stroke="black" d="M262.11,-52.63C268.19,-49.42 275.34,-45.84 282,-43 297.03,-36.58 314.31,-30.57 328.23,-26.06"/>
<polygon fill="black" stroke="black" points="329.65,-29.27 338.12,-22.91 327.53,-22.6 329.65,-29.27"/>
<text text-anchor="middle" x="299" y="-46.8" font-family="Times,serif" font-size="14.00">(2,2)</text>
</g>
<!-- 4&#45;&gt;1 -->
<g id="edge4" class="edge">
<title>4&#45;&gt;1</title>
<path fill="none" stroke="black" d="M464.95,-96.82C459.26,-97.66 452.87,-98.49 447,-99 339.53,-108.34 210.98,-109.25 155.83,-109.16"/>
<polygon fill="black" stroke="black" points="155.81,-105.66 145.8,-109.13 155.79,-112.66 155.81,-105.66"/>
<text text-anchor="middle" x="299" y="-110.8" font-family="Times,serif" font-size="14.00">(1,1)</text>
</g>
<!-- 4&#45;&gt;5 -->
<g id="edge3" class="edge">
<title>4&#45;&gt;5</title>
<path fill="none" stroke="black" d="M500.2,-99.84C520.62,-107.21 555.96,-119.95 580.13,-128.67"/>
<polygon fill="black" stroke="black" points="579.14,-132.03 589.73,-132.13 581.51,-125.45 579.14,-132.03"/>
<text text-anchor="middle" x="545" y="-127.8" font-family="Times,serif" font-size="14.00">(14,14)</text>
</g>
<!-- 2&#45;&gt;4 -->
<g id="edge7" class="edge">
<title>2&#45;&gt;4</title>
<path fill="none" stroke="black" d="M373.67,-19.23C393.08,-21.37 424.84,-27.2 447,-43 456.41,-49.71 464.09,-59.79 469.84,-69.22"/>
<polygon fill="black" stroke="black" points="466.79,-70.94 474.75,-77.93 472.89,-67.5 466.79,-70.94"/>
<text text-anchor="middle" x="421" y="-46.8" font-family="Times,serif" font-size="14.00">(10,12)</text>
</g>
<!-- 0 -->
<g id="node6" class="node">
<title>0</title>
<ellipse fill="none" stroke="black" cx="18" cy="-52" rx="18" ry="18"/>
<text text-anchor="middle" x="18" y="-48.3" font-family="Times,serif" font-size="14.00">0</text>
</g>
<!-- 0&#45;&gt;1 -->
<g id="edge8" class="edge">
<title>0&#45;&gt;1</title>
<path fill="none" stroke="black" d="M34.4,-60.17C52.12,-69.56 81.45,-85.11 102.24,-96.14"/>
<polygon fill="black" stroke="black" points="100.65,-99.26 111.13,-100.85 103.93,-93.07 100.65,-99.26"/>
<text text-anchor="middle" x="71" y="-90.8" font-family="Times,serif" font-size="14.00">(7,7)</text>
</g>
<!-- 0&#45;&gt;3 -->
<g id="edge9" class="edge">
<title>0&#45;&gt;3</title>
<path fill="none" stroke="black" d="M36.36,-52.69C75.48,-54.25 170.79,-58.04 217.83,-59.92"/>
<polygon fill="black" stroke="black" points="217.76,-63.42 227.89,-60.32 218.04,-56.42 217.76,-63.42"/>
<text text-anchor="middle" x="127.5" y="-60.8" font-family="Times,serif" font-size="14.00">(7,10)</text>
</g>
<!-- 0&#45;&gt;2 -->
<g id="edge10" class="edge">
<title>0&#45;&gt;2</title>
<path fill="none" stroke="black" d="M36.1,-50.27C90.62,-44.74 260.65,-27.51 327.3,-20.76"/>
<polygon fill="black" stroke="black" points="327.84,-24.22 337.44,-19.73 327.13,-17.26 327.84,-24.22"/>
<text text-anchor="middle" x="188.5" y="-39.8" font-family="Times,serif" font-size="14.00">(8,8)</text>
</g>
</g>
</svg>
