<?xml version="1.0" encoding="UTF-8" standalone="no"?>
<!DOCTYPE svg PUBLIC "-//W3C//DTD SVG 1.1//EN"
 "http://www.w3.org/Graphics/SVG/1.1/DTD/svg11.dtd">
<!-- Generated by graphviz version 2.43.0 (0)
 -->
<!-- Title: finite_state_machine Pages: 1 -->
<svg width="578pt" height="365pt"
 viewBox="0.00 0.00 578.00 365.00" xmlns="http://www.w3.org/2000/svg" xmlns:xlink="http://www.w3.org/1999/xlink">
<g id="graph0" class="graph" transform="scale(1 1) rotate(0) translate(4 361)">
<title>finite_state_machine</title>
<polygon fill="white" stroke="transparent" points="-4,4 -4,-361 574,-361 574,4 -4,4"/>
<!-- 3 -->
<g id="node1" class="node">
<title>3</title>
<ellipse fill="none" stroke="black" cx="142" cy="-178" rx="18" ry="18"/>
<text text-anchor="middle" x="142" y="-174.3" font-family="Times,serif" font-size="14.00">3</text>
</g>
<!-- 2 -->
<g id="node2" class="node">
<title>2</title>
<ellipse fill="none" stroke="black" cx="274" cy="-249" rx="18" ry="18"/>
<text text-anchor="middle" x="274" y="-245.3" font-family="Times,serif" font-size="14.00">2</text>
</g>
<!-- 3&#45;&gt;2 -->
<g id="edge1" class="edge">
<title>3&#45;&gt;2</title>
<path fill="none" stroke="black" d="M150.55,-194.06C156.5,-204.98 165.83,-218.87 178,-227 198.16,-240.47 225.51,-245.76 245.68,-247.8"/>
<polygon fill="black" stroke="black" points="245.54,-251.3 255.78,-248.61 246.1,-244.32 245.54,-251.3"/>
<text text-anchor="middle" x="204" y="-248.8" font-family="Times,serif" font-size="14.00">(0/∞)</text>
</g>
<!-- 1 -->
<g id="node3" class="node">
<title>1</title>
<ellipse fill="none" stroke="black" cx="429" cy="-159" rx="18" ry="18"/>
<text text-anchor="middle" x="429" y="-155.3" font-family="Times,serif" font-size="14.00">1</text>
</g>
<!-- 3&#45;&gt;1 -->
<g id="edge2" class="edge">
<title>3&#45;&gt;1</title>
<path fill="none" stroke="black" d="M160.39,-176.78C191.83,-174.58 260.26,-169.82 318,-166 346.22,-164.13 378.53,-162.09 400.79,-160.69"/>
<polygon fill="black" stroke="black" points="401.09,-164.18 410.85,-160.07 400.65,-157.2 401.09,-164.18"/>
<text text-anchor="middle" x="274" y="-173.8" font-family="Times,serif" font-size="14.00">(0/∞)</text>
</g>
<!-- 0 -->
<g id="node4" class="node">
<title>0</title>
<ellipse fill="none" stroke="black" cx="552" cy="-197" rx="18" ry="18"/>
<text text-anchor="middle" x="552" y="-193.3" font-family="Times,serif" font-size="14.00">0</text>
</g>
<!-- 3&#45;&gt;0 -->
<g id="edge3" class="edge">
<title>3&#45;&gt;0</title>
<path fill="none" stroke="black" d="M154.35,-164.86C160.66,-158.43 169.03,-151.19 178,-147 288.51,-95.4 331.35,-114.14 452,-132 480.71,-136.25 491.87,-128.87 516,-145 525.73,-151.51 533.47,-161.73 539.17,-171.4"/>
<polygon fill="black" stroke="black" points="536.17,-173.22 544,-180.36 542.33,-169.9 536.17,-173.22"/>
<text text-anchor="middle" x="353" y="-124.8" font-family="Times,serif" font-size="14.00">(73/∞)</text>
</g>
<!-- 2&#45;&gt;3 -->
<g id="edge10" class="edge">
<title>2&#45;&gt;3</title>
<path fill="none" stroke="black" d="M261.76,-235.62C253.7,-226.74 242.16,-215.4 230,-208 224.62,-204.73 192.87,-194.1 169.27,-186.43"/>
<polygon fill="black" stroke="black" points="170.03,-183 159.44,-183.25 167.87,-189.66 170.03,-183"/>
<text text-anchor="middle" x="204" y="-211.8" font-family="Times,serif" font-size="14.00">(0/∞)</text>
</g>
<!-- 2&#45;&gt;1 -->
<g id="edge11" class="edge">
<title>2&#45;&gt;1</title>
<path fill="none" stroke="black" d="M281.3,-232.21C288.01,-216.72 300.13,-194.31 318,-182 331.18,-172.92 372.64,-166.03 400.72,-162.26"/>
<polygon fill="black" stroke="black" points="401.27,-165.72 410.74,-160.96 400.37,-158.77 401.27,-165.72"/>
<text text-anchor="middle" x="353" y="-185.8" font-family="Times,serif" font-size="14.00">(0/∞)</text>
</g>
<!-- 2&#45;&gt;0 -->
<g id="edge12" class="edge">
<title>2&#45;&gt;0</title>
<path fill="none" stroke="black" d="M284.42,-264.01C292.09,-274.93 303.94,-289.13 318,-297 370.34,-326.28 397.54,-338.12 452,-313 492.61,-294.27 522.73,-249.76 538.52,-221.64"/>
<polygon fill="black" stroke="black" points="541.63,-223.25 543.32,-212.79 535.48,-219.91 541.63,-223.25"/>
<text text-anchor="middle" x="429" y="-329.8" font-family="Times,serif" font-size="14.00">(0/∞)</text>
</g>
<!-- 5 -->
<g id="node5" class="node">
<title>5</title>
<ellipse fill="none" stroke="black" cx="429" cy="-286" rx="18" ry="18"/>
<text text-anchor="middle" x="429" y="-282.3" font-family="Times,serif" font-size="14.00">5</text>
</g>
<!-- 2&#45;&gt;5 -->
<g id="edge13" class="edge">
<title>2&#45;&gt;5</title>
<path fill="none" stroke="black" d="M291.17,-255.24C299.16,-258.16 309,-261.54 318,-264 345.93,-271.63 378.52,-277.81 400.94,-281.66"/>
<polygon fill="black" stroke="black" points="400.62,-285.16 411.06,-283.36 401.78,-278.25 400.62,-285.16"/>
<text text-anchor="middle" x="353" y="-281.8" font-family="Times,serif" font-size="14.00">(167/170)</text>
</g>
<!-- 1&#45;&gt;3 -->
<g id="edge4" class="edge">
<title>1&#45;&gt;3</title>
<path fill="none" stroke="black" d="M411.04,-155.72C379.02,-150.02 307.53,-139.66 248,-148 220.25,-151.89 189.54,-161.29 168.54,-168.54"/>
<polygon fill="black" stroke="black" points="167.32,-165.25 159.07,-171.89 169.66,-171.85 167.32,-165.25"/>
<text text-anchor="middle" x="274" y="-151.8" font-family="Times,serif" font-size="14.00">(0/∞)</text>
</g>
<!-- 1&#45;&gt;2 -->
<g id="edge5" class="edge">
<title>1&#45;&gt;2</title>
<path fill="none" stroke="black" d="M417.5,-173.21C410.14,-182.29 399.58,-193.68 388,-201 360.32,-218.5 347.87,-210.59 318,-224 311.44,-226.95 304.59,-230.62 298.34,-234.24"/>
<polygon fill="black" stroke="black" points="296.49,-231.27 289.72,-239.41 300.09,-237.27 296.49,-231.27"/>
<text text-anchor="middle" x="353" y="-227.8" font-family="Times,serif" font-size="14.00">(96/∞)</text>
</g>
<!-- 1&#45;&gt;0 -->
<g id="edge6" class="edge">
<title>1&#45;&gt;0</title>
<path fill="none" stroke="black" d="M445.8,-165.81C453.1,-168.83 461.91,-172.29 470,-175 488.02,-181.03 508.71,-186.63 524.66,-190.67"/>
<polygon fill="black" stroke="black" points="523.84,-194.07 534.39,-193.08 525.53,-187.27 523.84,-194.07"/>
<text text-anchor="middle" x="493" y="-191.8" font-family="Times,serif" font-size="14.00">(0/∞)</text>
</g>
<!-- 0&#45;&gt;3 -->
<g id="edge7" class="edge">
<title>0&#45;&gt;3</title>
<path fill="none" stroke="black" d="M547.57,-214.63C542.96,-234.97 533.29,-268.73 516,-293 494.73,-322.85 486.54,-332.74 452,-345 432.73,-351.84 426.32,-347.28 406,-345 299.13,-333.01 253.11,-340.96 178,-264 162.4,-248.01 153.43,-224.13 148.49,-205.59"/>
<polygon fill="black" stroke="black" points="151.84,-204.55 146.08,-195.66 145.04,-206.2 151.84,-204.55"/>
<text text-anchor="middle" x="353" y="-345.8" font-family="Times,serif" font-size="14.00">(0/∞)</text>
</g>
<!-- 0&#45;&gt;2 -->
<g id="edge8" class="edge">
<title>0&#45;&gt;2</title>
<path fill="none" stroke="black" d="M534.65,-201.79C528.78,-203.48 522.1,-205.37 516,-207 459.36,-222.17 445.83,-229.27 388,-239 358.99,-243.88 325.37,-246.47 302.39,-247.78"/>
<polygon fill="black" stroke="black" points="302.14,-244.29 292.34,-248.31 302.51,-251.28 302.14,-244.29"/>
<text text-anchor="middle" x="429" y="-238.8" font-family="Times,serif" font-size="14.00">(71/∞)</text>
</g>
<!-- 0&#45;&gt;1 -->
<g id="edge9" class="edge">
<title>0&#45;&gt;1</title>
<path fill="none" stroke="black" d="M542.49,-181.52C536.44,-172.24 527.39,-161.25 516,-156 497.46,-147.45 474.21,-148.88 456.56,-152.08"/>
<polygon fill="black" stroke="black" points="455.45,-148.73 446.39,-154.22 456.9,-155.58 455.45,-148.73"/>
<text text-anchor="middle" x="493" y="-159.8" font-family="Times,serif" font-size="14.00">(73/∞)</text>
</g>
<!-- 4 -->
<g id="node6" class="node">
<title>4</title>
<ellipse fill="none" stroke="black" cx="18" cy="-43" rx="18" ry="18"/>
<text text-anchor="middle" x="18" y="-39.3" font-family="Times,serif" font-size="14.00">4</text>
</g>
<!-- 4&#45;&gt;3 -->
<g id="edge16" class="edge">
<title>4&#45;&gt;3</title>
<path fill="none" stroke="black" d="M30.7,-55.94C51.87,-79.37 96.7,-128.98 122.21,-157.21"/>
<polygon fill="black" stroke="black" points="119.86,-159.82 129.16,-164.9 125.05,-155.13 119.86,-159.82"/>
<text text-anchor="middle" x="80" y="-141.8" font-family="Times,serif" font-size="14.00">(73/73)</text>
</g>
<!-- 4&#45;&gt;1 -->
<g id="edge15" class="edge">
<title>4&#45;&gt;1</title>
<path fill="none" stroke="black" d="M36.26,-41.98C91.7,-39.51 268.58,-37.98 388,-109 398.53,-115.26 407.41,-125.41 414.11,-134.93"/>
<polygon fill="black" stroke="black" points="411.23,-136.91 419.63,-143.36 417.08,-133.08 411.23,-136.91"/>
<text text-anchor="middle" x="204" y="-58.8" font-family="Times,serif" font-size="14.00">(23/23)</text>
</g>
<!-- 4&#45;&gt;0 -->
<g id="edge14" class="edge">
<title>4&#45;&gt;0</title>
<path fill="none" stroke="black" d="M33.81,-34.09C56.2,-21.5 100.35,0 141,0 141,0 141,0 430,0 508.46,0 537.65,-114.85 547.06,-169.17"/>
<polygon fill="black" stroke="black" points="543.63,-169.86 548.69,-179.17 550.54,-168.74 543.63,-169.86"/>
<text text-anchor="middle" x="274" y="-3.8" font-family="Times,serif" font-size="14.00">(71/71)</text>
</g>
</g>
</svg>
