<?xml version="1.0" encoding="UTF-8" standalone="no"?>
<!DOCTYPE svg PUBLIC "-//W3C//DTD SVG 1.1//EN"
 "http://www.w3.org/Graphics/SVG/1.1/DTD/svg11.dtd">
<!-- Generated by graphviz version 2.43.0 (0)
 -->
<!-- Title: finite_state_machine Pages: 1 -->
<svg width="576pt" height="169pt"
 viewBox="0.00 0.00 576.00 168.71" xmlns="http://www.w3.org/2000/svg" xmlns:xlink="http://www.w3.org/1999/xlink">
<g id="graph0" class="graph" transform="scale(1.82 1.82) rotate(0) translate(4 302.96)">
<title>finite_state_machine</title>
<polygon fill="white" stroke="transparent" points="-4,4 -4,-302.96 1044,-302.96 1044,4 -4,4"/>
<!-- 3 -->
<g id="node1" class="node">
<title>3</title>
<ellipse fill="none" stroke="black" cx="18" cy="-76.96" rx="18" ry="18"/>
<text text-anchor="middle" x="18" y="-73.26" font-family="Times,serif" font-size="14.00">3</text>
</g>
<!-- 2 -->
<g id="node2" class="node">
<title>2</title>
<ellipse fill="none" stroke="black" cx="330" cy="-173.96" rx="18" ry="18"/>
<text text-anchor="middle" x="330" y="-170.26" font-family="Times,serif" font-size="14.00">2</text>
</g>
<!-- 3&#45;&gt;2 -->
<g id="edge1" class="edge">
<title>3&#45;&gt;2</title>
<path fill="none" stroke="black" d="M22.03,-94.83C26.05,-112.51 35,-138.77 54,-151.96 130.55,-205.13 249.62,-190.18 302.34,-179.95"/>
<polygon fill="black" stroke="black" points="303.15,-183.36 312.25,-177.93 301.75,-176.5 303.15,-183.36"/>
<text text-anchor="middle" x="140" y="-193.76" font-family="Times,serif" font-size="14.00">4611686018427387903</text>
</g>
<!-- 1 -->
<g id="node3" class="node">
<title>1</title>
<ellipse fill="none" stroke="black" cx="1022" cy="-118.96" rx="18" ry="18"/>
<text text-anchor="middle" x="1022" y="-115.26" font-family="Times,serif" font-size="14.00">1</text>
</g>
<!-- 3&#45;&gt;1 -->
<g id="edge2" class="edge">
<title>3&#45;&gt;1</title>
<path fill="none" stroke="black" d="M35.59,-71.92C41.36,-70.37 47.92,-68.85 54,-67.96 221.25,-43.67 265.03,-57.08 434,-53.96 679.68,-49.44 762.26,16.61 986,-84.96 992.53,-87.93 998.57,-92.65 1003.73,-97.64"/>
<polygon fill="black" stroke="black" points="1001.21,-100.08 1010.61,-104.98 1006.32,-95.29 1001.21,-100.08"/>
<text text-anchor="middle" x="520" y="-57.76" font-family="Times,serif" font-size="14.00">4611686018427387903</text>
</g>
<!-- 0 -->
<g id="node4" class="node">
<title>0</title>
<ellipse fill="none" stroke="black" cx="710" cy="-118.96" rx="18" ry="18"/>
<text text-anchor="middle" x="710" y="-115.26" font-family="Times,serif" font-size="14.00">0</text>
</g>
<!-- 3&#45;&gt;0 -->
<g id="edge3" class="edge">
<title>3&#45;&gt;0</title>
<path fill="none" stroke="black" d="M36.06,-78C128.33,-83.62 567.89,-110.37 681.93,-117.32"/>
<polygon fill="black" stroke="black" points="681.73,-120.81 691.92,-117.92 682.15,-113.82 681.73,-120.81"/>
<text text-anchor="middle" x="330" y="-103.76" font-family="Times,serif" font-size="14.00">4611686018427387903</text>
</g>
<!-- 2&#45;&gt;3 -->
<g id="edge4" class="edge">
<title>2&#45;&gt;3</title>
<path fill="none" stroke="black" d="M313.38,-166.21C293.57,-156.73 258.12,-140.97 226,-132.96 151.38,-114.35 122.86,-148.22 54,-113.96 47.03,-110.5 40.72,-105.04 35.44,-99.38"/>
<polygon fill="black" stroke="black" points="38.04,-97.04 28.9,-91.68 32.71,-101.57 38.04,-97.04"/>
<text text-anchor="middle" x="140" y="-136.76" font-family="Times,serif" font-size="14.00">4611686018427387903</text>
</g>
<!-- 2&#45;&gt;1 -->
<g id="edge5" class="edge">
<title>2&#45;&gt;1</title>
<path fill="none" stroke="black" d="M346.51,-181.51C424.36,-218.17 776.97,-369.93 986,-217.96 1008.25,-201.79 1016.43,-170.29 1019.4,-147.15"/>
<polygon fill="black" stroke="black" points="1022.88,-147.49 1020.42,-137.19 1015.92,-146.78 1022.88,-147.49"/>
<text text-anchor="middle" x="710" y="-287.76" font-family="Times,serif" font-size="14.00">4611686018427387903</text>
</g>
<!-- 2&#45;&gt;0 -->
<g id="edge6" class="edge">
<title>2&#45;&gt;0</title>
<path fill="none" stroke="black" d="M348.24,-173.95C391.85,-173.64 509.91,-170.94 606,-151.96 632.95,-146.64 662.73,-136.63 683.31,-129.02"/>
<polygon fill="black" stroke="black" points="684.77,-132.21 692.89,-125.4 682.3,-125.66 684.77,-132.21"/>
<text text-anchor="middle" x="520" y="-174.76" font-family="Times,serif" font-size="14.00">4611686018427387903</text>
</g>
<!-- 1&#45;&gt;3 -->
<g id="edge7" class="edge">
<title>1&#45;&gt;3</title>
<path fill="none" stroke="black" d="M1019.82,-101.03C1017.35,-79.61 1009.69,-44.6 986,-27.96 916.88,20.58 880.45,-25.3 796,-23.96 711.56,-22.63 690.45,-22.41 606,-21.96 360.38,-20.67 282.75,40.51 54,-48.96 48.66,-51.05 43.49,-54.26 38.83,-57.77"/>
<polygon fill="black" stroke="black" points="36.52,-55.14 31.09,-64.24 41.01,-60.52 36.52,-55.14"/>
<text text-anchor="middle" x="520" y="-25.76" font-family="Times,serif" font-size="14.00">4611686018427387903</text>
</g>
<!-- 1&#45;&gt;2 -->
<g id="edge8" class="edge">
<title>1&#45;&gt;2</title>
<path fill="none" stroke="black" d="M1006.55,-128.34C1000.43,-131.89 993.1,-135.64 986,-137.96 751.83,-214.7 679.69,-208.93 434,-189.96 407.88,-187.95 378.36,-183.09 357.65,-179.26"/>
<polygon fill="black" stroke="black" points="358.15,-175.79 347.68,-177.37 356.85,-182.67 358.15,-175.79"/>
<text text-anchor="middle" x="710" y="-205.76" font-family="Times,serif" font-size="14.00">4611686018427387903</text>
</g>
<!-- 1&#45;&gt;0 -->
<g id="edge9" class="edge">
<title>1&#45;&gt;0</title>
<path fill="none" stroke="black" d="M1003.94,-118.96C952.88,-118.96 800.92,-118.96 738.37,-118.96"/>
<polygon fill="black" stroke="black" points="738.11,-115.46 728.11,-118.96 738.11,-122.46 738.11,-115.46"/>
<text text-anchor="middle" x="900" y="-122.76" font-family="Times,serif" font-size="14.00">4611686018427387903</text>
</g>
<!-- 0&#45;&gt;3 -->
<g id="edge10" class="edge">
<title>0&#45;&gt;3</title>
<path fill="none" stroke="black" d="M692.29,-115.21C671.97,-110.72 636.58,-103.17 606,-97.96 521.98,-83.66 501.03,-77.75 416,-71.96 339.73,-66.77 320.44,-71.36 244,-71.96 159.55,-72.63 138.4,-71.89 54,-74.96 51.45,-75.06 48.79,-75.17 46.13,-75.3"/>
<polygon fill="black" stroke="black" points="45.88,-71.81 36.08,-75.85 46.26,-78.8 45.88,-71.81"/>
<text text-anchor="middle" x="330" y="-75.76" font-family="Times,serif" font-size="14.00">4611686018427387903</text>
</g>
<!-- 0&#45;&gt;2 -->
<g id="edge11" class="edge">
<title>0&#45;&gt;2</title>
<path fill="none" stroke="black" d="M692.01,-117.92C648.49,-115.66 529.75,-112.07 434,-132.96 406.04,-139.06 375.82,-151.91 355.39,-161.6"/>
<polygon fill="black" stroke="black" points="353.67,-158.55 346.2,-166.07 356.73,-164.85 353.67,-158.55"/>
<text text-anchor="middle" x="520" y="-136.76" font-family="Times,serif" font-size="14.00">4611686018427387903</text>
</g>
<!-- 0&#45;&gt;1 -->
<g id="edge12" class="edge">
<title>0&#45;&gt;1</title>
<path fill="none" stroke="black" d="M727.64,-114.92C747.9,-110.23 783.22,-102.78 814,-99.96 890.13,-93 911.91,-81.15 986,-99.96 989.96,-100.97 993.95,-102.52 997.76,-104.32"/>
<polygon fill="black" stroke="black" points="996.22,-107.46 1006.69,-109.1 999.52,-101.29 996.22,-107.46"/>
<text text-anchor="middle" x="900" y="-103.76" font-family="Times,serif" font-size="14.00">4611686018427387903</text>
</g>
</g>
</svg>
