<?xml version="1.0" encoding="UTF-8" standalone="no"?>
<!DOCTYPE svg PUBLIC "-//W3C//DTD SVG 1.1//EN"
 "http://www.w3.org/Graphics/SVG/1.1/DTD/svg11.dtd">
<!-- Generated by graphviz version 2.43.0 (0)
 -->
<!-- Title: finite_state_machine Pages: 1 -->
<svg width="574pt" height="121pt"
 viewBox="0.00 0.00 574.00 121.00" xmlns="http://www.w3.org/2000/svg" xmlns:xlink="http://www.w3.org/1999/xlink">
<g id="graph0" class="graph" transform="scale(1 1) rotate(0) translate(4 117)">
<title>finite_state_machine</title>
<polygon fill="white" stroke="transparent" points="-4,4 -4,-117 570,-117 570,4 -4,4"/>
<!-- 0 -->
<g id="node1" class="node">
<title>0</title>
<ellipse fill="none" stroke="black" cx="18" cy="-25" rx="18" ry="18"/>
<text text-anchor="middle" x="18" y="-21.3" font-family="Times,serif" font-size="14.00">0</text>
</g>
<!-- 1 -->
<g id="node2" class="node">
<title>1</title>
<ellipse fill="none" stroke="black" cx="124" cy="-55" rx="18" ry="18"/>
<text text-anchor="middle" x="124" y="-51.3" font-family="Times,serif" font-size="14.00">1</text>
</g>
<!-- 0&#45;&gt;1 -->
<g id="edge1" class="edge">
<title>0&#45;&gt;1</title>
<path fill="none" stroke="black" d="M35.71,-29.82C52.16,-34.57 77.53,-41.88 96.69,-47.41"/>
<polygon fill="black" stroke="black" points="95.75,-50.78 106.33,-50.19 97.69,-44.06 95.75,-50.78"/>
<text text-anchor="middle" x="71" y="-47.8" font-family="Times,serif" font-size="14.00">(2,4)</text>
</g>
<!-- 2 -->
<g id="node3" class="node">
<title>2</title>
<ellipse fill="none" stroke="black" cx="336" cy="-18" rx="18" ry="18"/>
<text text-anchor="middle" x="336" y="-14.3" font-family="Times,serif" font-size="14.00">2</text>
</g>
<!-- 0&#45;&gt;2 -->
<g id="edge2" class="edge">
<title>0&#45;&gt;2</title>
<path fill="none" stroke="black" d="M36.44,-24.61C88.68,-23.46 244.19,-20.01 307.61,-18.61"/>
<polygon fill="black" stroke="black" points="308.08,-22.1 318,-18.38 307.92,-15.1 308.08,-22.1"/>
<text text-anchor="middle" x="177" y="-24.8" font-family="Times,serif" font-size="14.00">(3,3)</text>
</g>
<!-- 4 -->
<g id="node5" class="node">
<title>4</title>
<ellipse fill="none" stroke="black" cx="230" cy="-63" rx="18" ry="18"/>
<text text-anchor="middle" x="230" y="-59.3" font-family="Times,serif" font-size="14.00">4</text>
</g>
<!-- 1&#45;&gt;4 -->
<g id="edge4" class="edge">
<title>1&#45;&gt;4</title>
<path fill="none" stroke="black" d="M142.17,-56.32C158.36,-57.57 182.87,-59.45 201.73,-60.9"/>
<polygon fill="black" stroke="black" points="201.56,-64.4 211.8,-61.68 202.1,-57.42 201.56,-64.4"/>
<text text-anchor="middle" x="177" y="-63.8" font-family="Times,serif" font-size="14.00">(2,3)</text>
</g>
<!-- 5 -->
<g id="node4" class="node">
<title>5</title>
<ellipse fill="none" stroke="black" cx="442" cy="-69" rx="18" ry="18"/>
<text text-anchor="middle" x="442" y="-65.3" font-family="Times,serif" font-size="14.00">5</text>
</g>
<!-- 2&#45;&gt;5 -->
<g id="edge3" class="edge">
<title>2&#45;&gt;5</title>
<path fill="none" stroke="black" d="M353.46,-22.49C367.82,-26.74 388.94,-33.83 406,-43 410.51,-45.43 415.09,-48.39 419.37,-51.43"/>
<polygon fill="black" stroke="black" points="417.56,-54.44 427.66,-57.65 421.76,-48.85 417.56,-54.44"/>
<text text-anchor="middle" x="389" y="-46.8" font-family="Times,serif" font-size="14.00">(3,4)</text>
</g>
<!-- 5&#45;&gt;4 -->
<g id="edge8" class="edge">
<title>5&#45;&gt;4</title>
<path fill="none" stroke="black" d="M423.87,-68.51C387.53,-67.47 302.44,-65.04 258.43,-63.78"/>
<polygon fill="black" stroke="black" points="258.28,-60.28 248.19,-63.49 258.08,-67.28 258.28,-60.28"/>
<text text-anchor="middle" x="336" y="-69.8" font-family="Times,serif" font-size="14.00">(0,1)</text>
</g>
<!-- 3 -->
<g id="node6" class="node">
<title>3</title>
<ellipse fill="none" stroke="black" cx="548" cy="-92" rx="18" ry="18"/>
<text text-anchor="middle" x="548" y="-88.3" font-family="Times,serif" font-size="14.00">3</text>
</g>
<!-- 5&#45;&gt;3 -->
<g id="edge7" class="edge">
<title>5&#45;&gt;3</title>
<path fill="none" stroke="black" d="M459.71,-72.7C476.08,-76.32 501.3,-81.89 520.43,-86.12"/>
<polygon fill="black" stroke="black" points="519.81,-89.57 530.33,-88.31 521.32,-82.74 519.81,-89.57"/>
<text text-anchor="middle" x="495" y="-86.8" font-family="Times,serif" font-size="14.00">(3,6)</text>
</g>
<!-- 4&#45;&gt;2 -->
<g id="edge6" class="edge">
<title>4&#45;&gt;2</title>
<path fill="none" stroke="black" d="M245.69,-53.86C251.84,-50.23 259.14,-46.17 266,-43 279.78,-36.62 295.68,-30.77 308.74,-26.33"/>
<polygon fill="black" stroke="black" points="310.12,-29.56 318.51,-23.09 307.92,-22.91 310.12,-29.56"/>
<text text-anchor="middle" x="283" y="-46.8" font-family="Times,serif" font-size="14.00">(0,1)</text>
</g>
<!-- 4&#45;&gt;3 -->
<g id="edge5" class="edge">
<title>4&#45;&gt;3</title>
<path fill="none" stroke="black" d="M246.35,-70.65C252.35,-73.35 259.37,-76.17 266,-78 357.36,-103.22 383.33,-96.63 478,-101 493.1,-101.7 497.01,-102.9 512,-101 514.76,-100.65 517.62,-100.15 520.46,-99.56"/>
<polygon fill="black" stroke="black" points="521.52,-102.91 530.43,-97.17 519.89,-96.1 521.52,-102.91"/>
<text text-anchor="middle" x="389" y="-101.8" font-family="Times,serif" font-size="14.00">(2,2)</text>
</g>
</g>
</svg>
